<?xml version="1.0" encoding="utf-8"?>
<!-- Generator: Adobe Illustrator 25.4.1, SVG Export Plug-In . SVG Version: 6.00 Build 0)  -->
<svg version="1.1" id="Layer_1" xmlns="http://www.w3.org/2000/svg" x="0px"
     y="0px"
     width="48px" height="48px" viewBox="0 0 48 48" style="enable-background:new 0 0 48 48;" xml:space="preserve">
<style type="text/css">
	.st0{fill:#FFFFFF;}
</style>
    <path class="st0" d="M24,42v-3.5l10.8-10.8l3.6,3.5L27.6,42H24z M6,31.5v-3h15v3H6z M40.5,29L37,25.5l1.5-1.5c0.3-0.3,0.6-0.4,1-0.4
	s0.8,0.1,1,0.4l1.5,1.5c0.3,0.3,0.4,0.6,0.4,1s-0.1,0.8-0.4,1.1L40.5,29z M6,23.2v-3h23.5v3H6z M6,15v-3h23.5v3H6z"/>
</svg>
