<?xml version="1.0" encoding="utf-8"?>
<!-- Generator: Adobe Illustrator 25.4.1, SVG Export Plug-In . SVG Version: 6.00 Build 0)  -->
<svg version="1.1" id="Layer_1" xmlns="http://www.w3.org/2000/svg" x="0px"
     y="0px"
     width="48px" height="48px" viewBox="0 0 48 48" style="enable-background:new 0 0 48 48;" xml:space="preserve">
<style type="text/css">
	.st0{fill:#FFFFFF;}
</style>
    <path class="st0" d="M8.4,40v-3h6.5l-0.8-0.6c-2.1-1.7-3.7-3.6-4.7-5.6S8,26.6,8,24.1c0-3.5,1-6.7,3.1-9.5s4.8-4.8,8.2-5.8v3.1
	c-2.5,1-4.5,2.6-6.1,4.8S11,21.4,11,24.1c0,2.1,0.4,3.9,1.2,5.5c0.8,1.5,1.8,2.9,3.2,4l1.5,1v-6.2h3V40H8.4z M28.7,39.2v-3.2
	c2.5-1,4.5-2.6,6-4.8s2.2-4.7,2.2-7.4c0-1.6-0.4-3.2-1.2-4.9c-0.8-1.7-1.8-3.1-3.1-4.4l-1.4-1.3v6.2h-3V8h11.5v3h-6.5l0.8,0.7
	c2,1.9,3.5,3.9,4.5,6s1.5,4.2,1.5,6.2c0,3.5-1,6.7-3.1,9.6S32.1,38.2,28.7,39.2z"/>
</svg>
